<?xml version="1.0" standalone="no"?><!DOCTYPE svg PUBLIC "-//W3C//DTD SVG 1.1//EN" "http://www.w3.org/Graphics/SVG/1.1/DTD/svg11.dtd"><svg t="1564674991601" class="icon" viewBox="0 0 1024 1024" version="1.1" xmlns="http://www.w3.org/2000/svg" p-id="2108" xmlns:xlink="http://www.w3.org/1999/xlink" width="200" height="200"><defs><style type="text/css"></style></defs><path d="M97.857748 143.123698c-8.455579 11.357675-12.236696 30.349215-11.345396 56.989969l5.244444 156.909679c0.364297 10.861372 2.993171 18.509563 7.900947 22.952758 4.891404 4.428869 12.599969 7.635911 23.103184 9.606799 13.344936 1.976004 26.131147 9.386788 38.295188 22.219047 12.139481 12.811794 18.436908 30.588669 18.937305 53.286624 0.328481 14.804171-1.750877 27.376511-6.183839 37.737486-4.440126 10.360975-9.82067 18.754133-16.211217 25.172309-6.350638 6.412037-12.744255 11.096732-19.176758 14.047947-6.421246 2.967588-11.491729 4.443196-15.226796 4.443196-10.157337 1.970888-16.785292 5.678326-19.853164 11.101849-3.075035 5.438872-4.423753 13.568017-4.062526 24.430412l7.123234 213.143425c0.923022 27.637454 6.459109 46.388517 16.585747 56.257282 10.112312 9.860579 27.15343 14.301727 51.14689 13.326517 7.130398 0 20.259416 0.23536 39.396265 0.735757 19.134803 0.493234 38.498826 0.735757 58.07979 0.735757l41.426505 0L313.037553 126.108163 156.280346 126.108163C125.821637 126.108163 106.322537 131.787512 97.857748 143.123698z" p-id="2109"></path><path d="M904.20359 358.496907c9.81146-2.951215 17.046235-8.129144 21.683858-15.541975 4.635577-7.396457 6.851035-15.286148 6.67298-23.676236-0.197498-8.392134-2.828418-16.540721-7.90811-24.430412-5.084808-7.889691-11.95938-13.808494-20.605294-17.755386-11.562337-3.949962-19.655665-9.863648-24.287149-17.757432-4.612041-7.904017-6.315846-16.040325-5.074575-24.430412 1.2689-8.382924 4.687766-16.040325 10.293437-22.933315 5.608741-6.91448 12.880355-11.858072 21.778003-14.804171 8.921183-2.971681 15.485693-8.390088 19.677155-16.279778 4.191462-7.91118 6.198166-15.804964 5.979178-23.694655-0.223081-7.889691-2.420119-15.043624-6.616698-21.462824-4.205788-6.414083-10.234085-9.621125-18.086937-9.621125l-546.17945 0 0 740.111325 512.621147 0c7.556093 0 13.580297-3.207042 18.060331-9.626241 4.487198-6.414083 7.349385-13.568017 8.562003-21.457708 1.216711-7.896854 0.326435-16.047488-2.711761-24.430412-3.025916-8.371668-8.281617-14.550391-15.739473-18.497283-11.207249-5.92085-19.289322-13.326517-24.230867-22.198581-4.943592-8.886391-7.03216-17.771759-6.2831-26.643823 0.763386-8.883321 4.381797-17.276479 10.82658-25.163099 6.461155-7.896854 15.467273-13.335726 27.028587-16.279778 8.674567-2.974751 15.07023-8.150634 19.144012-15.544021 4.076852-7.416923 6.054903-15.800871 5.90243-25.172309-0.159636-9.360182-2.715855-18.250666-7.690146-26.640754-4.976338-8.382924-11.719926-14.564717-20.206204-18.504446-18.866696-9.867742-27.538193-23.179932-26.046213-39.963177 1.51347-16.773012 14.486946-31.081902 38.933731-42.920532 7.844665-3.946892 13.836123-9.880021 17.954931-17.776875 4.128017-7.889691 6.127558-16.279778 5.948479-25.163099-0.171915-8.872065-2.521426-17.257036-7.081279-25.15389-4.553713-7.90811-11.602246-13.826913-21.134343-17.766642-10.516518-3.949962-18.293645-10.364045-23.323195-19.235087-5.027503-8.883321-7.166213-17.776875-6.404873-26.660196 0.779759-8.872065 4.438079-17.496489 11.031241-25.886577C883.288235 367.142821 892.458081 361.464495 904.20359 358.496907zM684.32681 474.840682c5.406127 0.975211 10.567683 1.475608 15.492856 1.475608l50.135864 0c4.900613 0 9.082866 1.970888 12.516058 5.918803 3.446495 3.961218 5.164626 7.91118 5.164626 11.860119l0 35.503609c0 6.921643-4.907777 10.368138-14.733563 10.368138l-86.98819 0c-3.949962 0-7.635911 0.9967-11.06194 2.967588-3.446495 1.970888-5.164626 4.936429-5.164626 8.883321s0.239454 8.129144 0.732687 12.579503c0.502443 4.443196 0.74292 8.143471 0.74292 11.096732 0 5.918803 4.903683 7.887644 14.749936 5.918803l85.49621 0c9.840112 0 14.749936 4.443196 14.749936 13.326517l0 32.568766c0 9.858532-6.879688 14.802124-20.633946 14.802124l-19.176758 0c-7.854898 0-15.9646 0.239454-24.319895 0.735757-8.350179 0.493234-15.986089 0.732687-22.865777 0.732687l-13.250792 0c-8.850575 0-13.281491 4.945639-13.281491 14.811334l0 59.20031c0 4.943592-3.926426 7.416923-11.794627 7.416923l-47.185672 0c-12.779048 0-19.158339-5.438872-19.158339-16.301268 0-3.949962 0.242524-12.31856 0.735757-25.151843 0.478907-12.833283 0.2415-21.718651-0.735757-26.640754 0-4.943592-0.500397-8.150634-1.475608-9.626241-0.9967-1.477654-3.939729-2.231831-8.850575-2.231831l-88.463798 0c-12.779048 0-19.171642-6.414083-19.171642-19.23304 0-2.967588-0.481977-6.67298-1.475608-11.096732-0.982374-4.440126-0.982374-9.122775 0-14.066367 0.99363-4.938476 2.471284-9.367345 4.419659-13.328563 1.978051-3.949962 5.89936-5.4225 11.803837-4.428869l98.792027 0c1.950422 0 2.946099-2.471284 2.946099-7.407714l0-28.119431c0-4.940522-5.897314-7.414877-17.701151-7.414877l-85.512582 0c-3.928472 0-7.374968-0.239454-10.321066-0.735757-2.951215-0.478907-4.426823-3.204995-4.426823-8.129144l0-17.776875c0-7.887644-0.481977-13.805424-1.457188-17.757432-1.968841-5.918803-0.500397-10.859325 4.40738-14.802124 4.924149-3.949962 11.30344-5.918803 19.171642-5.918803 7.854898 0.975211 16.464997 1.236154 25.795503 0.732687 9.346879-0.493234 16.468067-0.732687 21.388123-0.732687l17.682731 0c5.89936 0 7.875365-1.970888 5.89936-5.918803-1.952468-1.970888-7.856945-9.386788-17.682731-22.200628-9.825786-12.830213-20.144806-26.163893-30.973432-39.974433-12.779048-16.780175-27.51568-35.030841-44.23241-54.758138-6.879688-10.861372-5.40408-19.747763 4.426823-26.640754 4.91801-2.974751 10.081613-6.680143 15.485693-11.125385 5.40408-4.419659 11.540847-8.622378 18.420535-12.570293 9.840112-5.918803 19.171642-0.49528 28.022217 16.279778 2.951215 3.946892 8.596795 11.101849 16.965393 21.462824 8.350179 10.360975 16.939811 21.457708 25.790386 33.31578 8.850575 11.836583 17.207917 22.438035 25.062815 31.823799 7.868201 9.365298 12.297071 15.043624 13.272281 17.022699 1.970888 3.939729 5.65786 6.412037 11.06194 7.387247 5.40408 0.9967 9.090029-0.493234 11.06194-4.440126 0.975211-1.970888 5.143137-8.129144 12.525268-18.49319 7.372921-10.358929 15.480576-21.956058 24.331151-34.791387 8.832156-12.811794 17.200754-24.909319 25.055652-36.266995 7.856945-11.336186 12.779048-18.491143 14.749936-21.462824 4.910846-6.892991 9.090029-11.336186 12.523221-13.308097 3.448542-1.978051 9.106402-1.497097 16.9613 1.477654 4.922103 1.968841 10.326183 4.936429 16.225543 8.883321 5.897314 3.949962 9.825786 6.89606 11.780301 8.864902 10.821463 10.861372 13.774725 20.24816 8.850575 28.137851-1.954515 2.953262-7.372921 10.360975-16.223496 22.198581-8.832156 11.839653-18.422581 24.430412-28.743648 37.744649-10.326183 13.33368-19.658735 25.90602-28.005844 37.744649-8.357342 11.850909-13.039991 18.751063-14.015202 20.722974C677.6876 470.891743 678.923754 473.865471 684.32681 474.840682z" p-id="2110"></path></svg>