<?xml version="1.0" standalone="no"?><!DOCTYPE svg PUBLIC "-//W3C//DTD SVG 1.1//EN" "http://www.w3.org/Graphics/SVG/1.1/DTD/svg11.dtd"><svg t="1589521570290" class="icon" viewBox="0 0 1024 1024" version="1.1" xmlns="http://www.w3.org/2000/svg" p-id="805" xmlns:xlink="http://www.w3.org/1999/xlink" width="200" height="200"><defs><style type="text/css"></style></defs><path d="M172.3 797.8h-7.2c-76.4 0-134-50.4-122.2-105.8 18.6-87.4 66.9-152.6 164.5-171.8-54.5-24-92.7-78.3-92.7-141.7 0-85.5 69.3-154.8 154.9-154.8 7.8 0 15.3 1.2 22.9 2.3-16.5 33.3-26.7 70.4-26.7 110.1 0 65.5 25.7 127 69.3 172.6-84.6 42.7-139.4 120.4-163.3 232-4.1 19.2-3.5 38.5 0.5 57.1zM987 692.1c-18.7-87.4-66.9-152.6-164.5-171.8 54.5-24 92.7-78.3 92.7-141.7 0-85.5-69.3-154.8-154.8-154.8-7.3 0-14.4 1.2-21.4 2.2 16.6 33.4 26.7 70.5 26.7 110.3 0 66.5-26.3 128.7-71.1 174.5 81.8 43.3 137.5 120.4 162.8 227.3 4.8 20 4.7 40.2 0.5 59.8h7c76.4-0.1 134-50.5 122.1-105.8zM652.2 873.5c53 0 102.2-20.6 128.4-53.7 11.5-14.5 23.7-37.9 16.7-67.5-28-118.5-96.6-190-203.8-212.4l-50.7-10.6 47.5-20.6c69-29.8 113.5-97.5 113.5-172.6 0-103.7-84.4-188.1-188.1-188.1-103.7 0-188.1 84.4-188.1 188.1 0 74.5 44.2 142.1 112.7 172.1l48 21.1-51.5 10.1c-111.5 21.9-178.3 91.9-204.4 214.2-6.3 29.5 6.2 52.8 17.8 67.1 26.7 33 74.4 52.7 127.5 52.7h274.5z" p-id="806"></path></svg>