<?xml version="1.0" standalone="no"?><!DOCTYPE svg PUBLIC "-//W3C//DTD SVG 1.1//EN" "http://www.w3.org/Graphics/SVG/1.1/DTD/svg11.dtd"><svg t="1626073555504" class="icon" viewBox="0 0 1024 1024" version="1.1" xmlns="http://www.w3.org/2000/svg" p-id="1293" xmlns:xlink="http://www.w3.org/1999/xlink" width="200" height="200"><defs><style type="text/css"></style></defs><path d="M981.333333 938.666667h-187.733333c136.533333-93.866667 230.4-247.466667 230.4-426.666667 0-281.6-230.4-512-512-512S0 230.4 0 512s230.4 512 512 512h469.333333c25.6 0 42.666667-17.066667 42.666667-42.666667s-17.066667-42.666667-42.666667-42.666666zM512 162.133333c64 0 119.466667 51.2 119.466667 119.466667S576 392.533333 512 392.533333 392.533333 341.333333 392.533333 277.333333s55.466667-115.2 119.466667-115.2z m-234.666667 469.333334c-64 0-119.466667-51.2-119.466666-119.466667S213.333333 392.533333 277.333333 392.533333s119.466667 51.2 119.466667 119.466667-55.466667 119.466667-119.466667 119.466667z m234.666667 230.4c-64 0-119.466667-51.2-119.466667-119.466667s51.2-119.466667 119.466667-119.466667 119.466667 51.2 119.466667 119.466667-55.466667 119.466667-119.466667 119.466667z m119.466667-349.866667c0-64 51.2-119.466667 119.466666-119.466667s119.466667 51.2 119.466667 119.466667-51.2 119.466667-119.466667 119.466667-119.466667-55.466667-119.466666-119.466667z" p-id="1294"></path></svg>