<?xml version="1.0" standalone="no"?><!DOCTYPE svg PUBLIC "-//W3C//DTD SVG 1.1//EN" "http://www.w3.org/Graphics/SVG/1.1/DTD/svg11.dtd"><svg t="1589523989608" class="icon" viewBox="0 0 1024 1024" version="1.1" xmlns="http://www.w3.org/2000/svg" p-id="3741" xmlns:xlink="http://www.w3.org/1999/xlink" width="200" height="200"><defs><style type="text/css"></style></defs><path d="M623.6 908.4H171.1c-19.9 0-36.2-16.3-36.2-36.2V419.8c0-19.9 16.3-36.2 36.2-36.2h452.5c19.9 0 36.2 16.3 36.2 36.2v452.5c0 19.9-16.3 36.1-36.2 36.1m274.1-240.5V196.4c0-14.7-7.5-17.9-16.8-7.1L749.3 342.7c-9.2 10.8-16.8 31.6-16.8 46.3v471.5c0 14.7 7.5 17.9 16.8 7.1l131.6-153.4c9.2-10.8 16.8-31.6 16.8-46.3M202.4 306.3h415c36 0 70.1-16.1 92.9-43.9l128.2-133.1c5.6-5.8 1.8-15.6-6.3-16.1l-393.7 1.3c-29.3 0-79.3 10.7-101.3 30.1l-148.6 125c-14.5 12.8-5.5 36.7 13.8 36.7" p-id="3742"></path></svg>