<?xml version="1.0" standalone="no"?><!DOCTYPE svg PUBLIC "-//W3C//DTD SVG 1.1//EN" "http://www.w3.org/Graphics/SVG/1.1/DTD/svg11.dtd"><svg t="1564675049045" class="icon" viewBox="0 0 1024 1024" version="1.1" xmlns="http://www.w3.org/2000/svg" p-id="3197" xmlns:xlink="http://www.w3.org/1999/xlink" width="200" height="200"><defs><style type="text/css"></style></defs><path d="M874.225755 149.774245c-201.869634-201.869634-520.953895-201.869634-722.823529 0-201.869634 201.869634-201.869634 520.953895 0 722.823529 201.869634 201.869634 527.465819 201.869634 722.823529 0S1076.09539 351.643879 874.225755 149.774245M704.915739 481.882353 704.915739 586.073132 561.653418 586.073132l0 39.071542 136.750397 0 0 97.678855L561.653418 722.823529l0 110.702703L450.950715 833.526232l0-110.702703L314.200318 722.823529 314.200318 625.144674l136.750397 0L450.950715 586.073132 314.200318 586.073132 314.200318 481.882353l84.655008 0-130.238474-247.4531 123.72655 0 84.655008 169.310016C490.022258 429.786963 496.534181 442.810811 503.046105 455.834658 509.558029 436.298887 516.069952 423.27504 522.581876 403.739269l84.655008-169.310016 123.72655 0-130.238474 247.4531L704.915739 481.882353z" p-id="3198"></path></svg>