<?xml version="1.0" standalone="no"?><!DOCTYPE svg PUBLIC "-//W3C//DTD SVG 1.1//EN" "http://www.w3.org/Graphics/SVG/1.1/DTD/svg11.dtd"><svg t="1589521739020" class="icon" viewBox="0 0 1024 1024" version="1.1" xmlns="http://www.w3.org/2000/svg" p-id="2612" xmlns:xlink="http://www.w3.org/1999/xlink" width="200" height="200"><defs><style type="text/css"></style></defs><path d="M506.8 740.5c126.9 0 229.4-99.7 229.4-223s-102.9-223-229.4-223c-126.9 0-229.4 99.7-229.4 223 0.1 123.4 102.9 223 229.4 223zM876 445.4c0 176.3-130.4 322.7-302.5 353 61.6 11.2 117.9 36.9 164.9 73.5 38.7 30.3 16.5 91.3-33.3 91.3H309c-49.8 0-72-61-33.3-91.3 46.6-36.9 103.2-62.7 164.9-73.5-172.4-30.3-302.8-176.7-302.8-353 0-198.3 165.2-358.9 369.1-358.9S876 247.1 876 445.4zM368.4 560.7c0-76.4 62-138.4 138.4-138.4s138.4 62 138.4 138.4-62 138.4-138.4 138.4-138.4-62-138.4-138.4z" p-id="2613"></path></svg>