<?xml version="1.0" standalone="no"?><!DOCTYPE svg PUBLIC "-//W3C//DTD SVG 1.1//EN" "http://www.w3.org/Graphics/SVG/1.1/DTD/svg11.dtd"><svg t="1589521706781" class="icon" viewBox="0 0 1024 1024" version="1.1" xmlns="http://www.w3.org/2000/svg" p-id="1452" xmlns:xlink="http://www.w3.org/1999/xlink" width="200" height="200"><defs><style type="text/css"></style></defs><path d="M263.6 717.8h-73.9c-20.4 0-37-16.6-37-37V119.9c0-20.4 16.6-37 37-37h454.9c20.4 0 37 16.6 37 37v73.9h-381c-20.4 0-37 16.6-37 37v487z m120.6 186.8H839c20.4 0 37-16.6 37-37V306.7c0-20.4-16.6-37-37-37H384.2c-20.4 0-37 16.6-37 37v560.9c0 20.5 16.5 37 37 37z" p-id="1453"></path></svg>