<?xml version="1.0" standalone="no"?><!DOCTYPE svg PUBLIC "-//W3C//DTD SVG 1.1//EN" "http://www.w3.org/Graphics/SVG/1.1/DTD/svg11.dtd"><svg t="1589521676883" class="icon" viewBox="0 0 1024 1024" version="1.1" xmlns="http://www.w3.org/2000/svg" p-id="932" xmlns:xlink="http://www.w3.org/1999/xlink" width="200" height="200"><defs><style type="text/css"></style></defs><path d="M597 476.9l168.7-100.5c12.2-7.2 27.6 1.5 27.6 15.7v440.6c0 36.6-29.6 66.2-66.2 66.2H174.7c-36.6 0-66.2-29.6-66.2-66.2V570.9c0-6.4 3.4-12.4 8.9-15.7l304.5-181.4a18.3 18.3 0 0 1 20.4 1.1l134.3 100.9c6 4.5 14 4.9 20.4 1.1z m334.3-317.8c6.9-1.3 11.8 6.5 7.6 12.2L825 325.3c-3.2 4.4-9.8 4.1-12.7-0.5L788.6 287 600 399.8c-9.3 5.5-20.9 4.9-29.5-1.5l-139.6-105L70.5 510.6l-27.4-45.3 375.7-226.5c9.3-5.6 20.9-5 29.6 1.5l139.8 105 172.4-103.1-22.5-35.9c-2.9-4.6-0.3-10.7 5.1-11.7l188.1-35.5z" p-id="933"></path></svg>